<?xml version="1.0" encoding="UTF-8" standalone="no"?>
<!DOCTYPE svg PUBLIC "-//W3C//DTD SVG 1.1//EN" "http://www.w3.org/Graphics/SVG/1.1/DTD/svg11.dtd">
<svg width="100%" height="100%" viewBox="0 0 15 26" version="1.1" xmlns="http://www.w3.org/2000/svg" xmlns:xlink="http://www.w3.org/1999/xlink" xml:space="preserve" xmlns:serif="http://www.serif.com/" style="fill-rule:evenodd;clip-rule:evenodd;stroke-linejoin:round;stroke-miterlimit:2;">
    <g transform="matrix(1,0,0,1,-328.494,-446.069)">
        <g transform="matrix(1,0,0,1,323.251,446.569)">
            <path d="M18.749,0.005L15.507,0C11.865,0 9.512,2.415 9.512,6.153L9.512,8.989L6.252,8.989C5.97,8.989 5.742,9.218 5.742,9.499L5.742,13.609C5.742,13.891 5.971,14.119 6.252,14.119L9.512,14.119L9.512,24.49C9.512,24.772 9.74,25 10.021,25L14.274,25C14.556,25 14.784,24.772 14.784,24.49L14.784,14.119L18.595,14.119C18.877,14.119 19.105,13.891 19.105,13.609L19.106,9.499C19.106,9.364 19.053,9.235 18.957,9.139C18.862,9.043 18.732,8.989 18.596,8.989L14.784,8.989L14.784,6.585C14.784,5.429 15.059,4.842 16.565,4.842L18.749,4.841C19.03,4.841 19.258,4.613 19.258,4.331L19.258,0.515C19.258,0.234 19.031,0.006 18.749,0.005Z" style="fill:white;fill-rule:nonzero;stroke:rgb(249,125,1);stroke-width:1px;"/>
        </g>
    </g>
</svg>
