<?xml version="1.0" encoding="UTF-8" standalone="no"?>
<!DOCTYPE svg PUBLIC "-//W3C//DTD SVG 1.1//EN" "http://www.w3.org/Graphics/SVG/1.1/DTD/svg11.dtd">
<svg width="100%" height="100%" viewBox="0 0 26 26" version="1.1" xmlns="http://www.w3.org/2000/svg" xmlns:xlink="http://www.w3.org/1999/xlink" xml:space="preserve" xmlns:serif="http://www.serif.com/" style="fill-rule:evenodd;clip-rule:evenodd;stroke-linejoin:round;stroke-miterlimit:2;">
    <g transform="matrix(1,0,0,1,-235.404,-435.787)">
        <g transform="matrix(1,0,0,1,235.904,436.287)">
            <path d="M18.101,0L6.899,0C3.095,0 0,3.095 0,6.899L0,18.101C0,21.905 3.095,25 6.899,25L18.101,25C21.905,25 25,21.905 25,18.101L25,6.899C25,3.095 21.905,0 18.101,0ZM22.782,18.101C22.782,20.682 20.682,22.782 18.101,22.782L6.899,22.782C4.318,22.782 2.218,20.682 2.218,18.101L2.218,6.899C2.218,4.318 4.318,2.218 6.899,2.218L18.101,2.218C20.682,2.218 22.782,4.318 22.782,6.899L22.782,18.101L22.782,18.101Z" style="fill:white;fill-rule:nonzero;stroke:rgb(249,125,1);stroke-width:1px;"/>
        </g>
        <g transform="matrix(1,0,0,1,235.904,436.287)">
            <path d="M12.5,6.058C8.948,6.058 6.059,8.948 6.059,12.5C6.059,16.052 8.948,18.942 12.5,18.942C16.052,18.942 18.942,16.052 18.942,12.5C18.942,8.948 16.052,6.058 12.5,6.058ZM12.5,16.724C10.172,16.724 8.277,14.829 8.277,12.5C8.277,10.171 10.171,8.276 12.5,8.276C14.829,8.276 16.724,10.171 16.724,12.5C16.724,14.829 14.829,16.724 12.5,16.724Z" style="fill:white;fill-rule:nonzero;stroke:rgb(249,125,1);stroke-width:1px;"/>
        </g>
        <g transform="matrix(1,0,0,1,235.904,436.287)">
            <path d="M19.212,4.177C18.785,4.177 18.365,4.351 18.064,4.654C17.76,4.955 17.586,5.375 17.586,5.804C17.586,6.232 17.76,6.651 18.064,6.955C18.365,7.256 18.785,7.431 19.212,7.431C19.641,7.431 20.06,7.256 20.363,6.955C20.666,6.651 20.839,6.231 20.839,5.804C20.839,5.375 20.666,4.955 20.363,4.654C20.061,4.351 19.641,4.177 19.212,4.177Z" style="fill:white;fill-rule:nonzero;stroke:rgb(249,125,1);stroke-width:1px;"/>
        </g>
    </g>
</svg>
