<?xml version="1.0" encoding="UTF-8" standalone="no"?>
<!DOCTYPE svg PUBLIC "-//W3C//DTD SVG 1.1//EN" "http://www.w3.org/Graphics/SVG/1.1/DTD/svg11.dtd">
<svg width="100%" height="100%" viewBox="0 0 53 53" version="1.1" xmlns="http://www.w3.org/2000/svg" xmlns:xlink="http://www.w3.org/1999/xlink" xml:space="preserve" xmlns:serif="http://www.serif.com/" style="fill-rule:evenodd;clip-rule:evenodd;">
    <g transform="matrix(1,0,0,1,-275.228,-386.225)">
        <g transform="matrix(1.13874,0.566199,-0.501942,1.0095,285.654,373.053)">
            <path d="M15.24,30.585L34.293,19.585" style="fill:none;fill-rule:nonzero;stroke:rgb(249,125,1);stroke-width:1px;"/>
        </g>
        <g transform="matrix(1.13874,0.566199,-0.501942,1.0095,285.654,373.053)">
            <path d="M31.491,28.315C28.317,26.143 30.475,24.023 33.61,20.407" style="fill:none;fill-rule:nonzero;stroke:rgb(249,125,1);stroke-width:1px;"/>
        </g>
        <g transform="matrix(1.13874,0.566199,-0.501942,1.0095,285.654,373.053)">
            <path d="M25.583,17.403C25.492,22.18 28.422,20.98 33.107,19.543" style="fill:none;fill-rule:nonzero;stroke:rgb(249,125,1);stroke-width:1px;"/>
        </g>
        <g transform="matrix(1.13874,0.566199,-0.501942,1.0095,285.654,373.053)">
            <path d="M33.969,19.038L32.853,19.112L33.864,20.838L34.474,19.901L33.969,19.038Z" style="fill:rgb(249,125,1);fill-rule:nonzero;stroke:rgb(249,125,1);stroke-width:0.25px;"/>
        </g>
        <g transform="matrix(0.866025,0.5,-0.5,0.866025,292.322,378.819)">
            <circle cx="24.5" cy="24.5" r="24" style="fill:none;stroke:rgb(249,125,1);stroke-width:1px;"/>
        </g>
    </g>
</svg>
